<?xml version="1.0" encoding="utf-8"?>
<!-- Generator: Adobe Illustrator 25.0.1, SVG Export Plug-In . SVG Version: 6.00 Build 0)  -->
<svg version="1.0" id="layer" xmlns="http://www.w3.org/2000/svg" xmlns:xlink="http://www.w3.org/1999/xlink" x="0px" y="0px"
	 viewBox="0 0 798 584" style="enable-background:new 0 0 798 584;" xml:space="preserve">
<path d="M163.7,293.7h27.7c11.2,0,20.5-9.1,20.5-20.5v-83.9c0-11.2-9.3-20.5-20.5-20.5h-27.7c-11.4,0-20.5,9.3-20.5,20.5v83.9
	C143.2,284.5,152.3,293.7,163.7,293.7z M167.2,192.7h20.5v76.9h-20.5V192.7z M107.8,293.6h24V168.8h-24L94,193.1h13.8V293.6z
	 M692.8,269.6h-40.6V168.7h-24v124.9h64.6V269.6L692.8,269.6z M497.6,260.5h6.6l13.3,33.1h26l-14-34.6c7.4-2.9,12.8-10.3,12.8-18.9
	v-50.7c0-11.2-9.3-20.5-20.5-20.5h-48.2v124.8h24L497.6,260.5z M497.7,192.8h20.5v43.8h-20.5V192.8z M653.6,377.6h22.6
	c9.2,0,16.7-7.4,16.7-16.7v-40.2c0-9.2-7.6-16.7-16.7-16.7h-22.6c-9.3,0-16.7,7.6-16.7,16.7v40.2
	C636.8,370.2,644.3,377.6,653.6,377.6z M656.4,323.5h16.7V358h-16.7V323.5z M157.6,354.4c3.9-2,6.8-6.1,6.8-11v-27.1
	c0-6.9-5.7-12.6-12.6-12.6h-43.4l0,0H102v19.5h6.4v62.6H102v19.5h7.8l0,0h41.9c6.9,0,12.6-5.7,12.6-12.5v-27.2
	C164.3,360.8,161.5,356.7,157.6,354.4z M144.6,323.2v21.6h-16.7v-21.6H144.6z M127.9,385.8v-21.6h16.7v21.6H127.9L127.9,385.8z
	 M638.1,385.9v19.5h46.4l9.5-19.5H638.1z M337.4,259.9h20.5v33.7h24v-87.3l0,0v-37.6h-20.3l0,0h-33c-8.5,0-15.5,7-15.5,15.5v109.4
	h24.2L337.4,259.9L337.4,259.9z M337.4,192.7h20.5v43.6h-20.5V192.7z M394,405.4h19.6V303.6H394V405.4z M424.6,260.5l13.3,33.1h26
	l-14-34.6c7.4-2.9,12.8-10.3,12.8-18.9v-50.7c0-11.2-9.3-20.5-20.5-20.5H394v124.8h24v-33.1h6.6V260.5z M418,192.8h20.5v43.8H418
	V192.8z M359.9,354.6l-2.1,20.8l-1.7-20.8l-6.1-51h-19.4l-6.2,51l-2.1,20.8l-1.6-20.8l-4.6-51H296l13.9,101.8h23l5.2-42.8
	c1.3-9.2,1.7-21.6,2.2-21.6c0.6,7.7,0.8,14.2,1.9,21.6l5.2,42.8h23l14-101.8h-20L359.9,354.6z M260.9,385.8v-21.5H293l-2.7-19.6
	h-29.5v-21.6h26.5l-2.7-19.6h-43.4v101.8h57.3l-2.7-19.6L260.9,385.8L260.9,385.8z M464.8,303.6v55.1l-17.5-55.1h-23.2v101.7h19.6
	v-55.4l17.7,55.4h23.2V303.6L464.8,303.6L464.8,303.6z M625,336.8v-20.3c0-6.9-5.7-12.6-12.6-12.6h-30.8c-6.8,0-12.4,5.6-12.4,12.6
	V393c0,6.8,5.7,12.4,12.4,12.4h30.8c6.9,0,12.6-5.6,12.6-12.4v-20.4h-19.7v13.3h-16.7v-62.4l16.7-0.1v13.4H625z M302.3,278.3v-33.4
	c0-6-3.5-11-8.3-13.8c4.8-2.5,8.3-7.5,8.3-13.5v-33.3c0-8.5-7-15.5-15.5-15.5h-53.2v0.1h-7.9v23.9h7.9v76.9h-7.9v23.9h9.6l0,0h51.5
	C295.3,293.6,302.3,286.6,302.3,278.3z M278.1,192.8v26.5h-20.5v-26.5H278.1z M257.6,269.6v-26.5h20.5v26.5H257.6L257.6,269.6z
	 M229.5,361.7v-41.3c0-9.2-7.6-16.7-16.7-16.7h-39.3v101.8H193v-27h5.4l10.9,27h21.1L219,377.1C225,374.8,229.5,368.8,229.5,361.7z
	 M209.7,358.8H193v-35.7h16.7V358.8z M618.1,269.6h-39.9v-26.3h28v-24h-27.9v-26.5h39.9v-24h-63.9v124.8h63.9L618.1,269.6z
	 M550.1,336.8v-20.2c0-7-5.7-12.6-12.6-12.6h-30.8c-6.8,0-12.4,5.7-12.4,12.6v76.5c0,6.7,5.7,12.4,12.4,12.4h30.8
	c6.9,0,12.6-5.7,12.6-12.4v-48h-23.5l-8.1,19.5h12V386h-16.7v-62.4h16.7v13.3L550.1,336.8L550.1,336.8z"/>
</svg>
