<?xml version="1.0" encoding="utf-8"?>
<!-- Generator: Adobe Illustrator 19.2.1, SVG Export Plug-In . SVG Version: 6.00 Build 0)  -->
<svg version="1.1" id="layer" xmlns="http://www.w3.org/2000/svg" xmlns:xlink="http://www.w3.org/1999/xlink" x="0px" y="0px"
	 viewBox="0 0 652 652" style="enable-background:new 0 0 652 652;" xml:space="preserve">
<g transform="matrix(1.25 0 0 -1.25 -.32461 241.65)">
	<g transform="scale(.24)">
		<path id="path2844" d="M330-383.3L287.8-426h-178l-41.9,42.2v236.6l41.6,42.5h178.3l41.9-42.8v-59.7h-78.3v22.5H145.9v-161.6
			h105.5v41.9h-44.7v75.5H330V-383.3"/>
		<path id="path2846" d="M862.6-426.9v0.8H862L862.6-426.9"/>
		<path id="path2848" d="M1124.4-104.8h-78v-123.8H940.9v123.8h-78.6l0.6-321.3h78.3v121.9h105.5V-426h78.3L1124.4-104.8"/>
		<path id="path2850" d="M1976-104.8h91.4l-115.2-161L2067.9-426h-92.7l-91.1,126.6V-426h-78.3l-0.6,321.3h78.6v-128L1976-104.8"/>
		<path id="path2852" d="M582.1-303.9l142.4-0.3v-41.9H619.1v23h-78.3v-60.5l41.9-42.2h178l42.2,42.8v112.7l-41.4,41.9H619.4
			l-0.3,43.9h105.5V-207h78.3v59.7l-42.2,42.5H582.4l-41.6-42.5v-114.1L582.1-303.9"/>
		<path id="path2854" d="M1755.3-323.3v-60l-42.2-42.8h-178l-41.9,42.2v236.6l41.6,42.5h178.3l41.9-42.8v-58.9h-78.3v21.9h-105.5
			v-161.6h105.5v23L1755.3-323.3"/>
		<path id="path2856" d="M1359.9-346.1h-105.5v161.6h105.5V-346.1z M1438.2-147.5l-41.9,42.8H1218l-41.6-42.5v-236.6l41.9-42.2h178
			l42.2,42.8v235.7"/>
		<path id="path2858" d="M377.5-301.1h118.6v73.3H377.5C377.5-227.8,377.5-301.1,377.5-301.1z"/>
	</g>
</g>
</svg>
