<?xml version="1.0" encoding="UTF-8"?><svg id="Layer_1" xmlns="http://www.w3.org/2000/svg" viewBox="0 0 184.61 159.58"><defs><style>.cls-1{fill:#fff;}.cls-1,.cls-2,.cls-3,.cls-4{fill-rule:evenodd;}.cls-2{fill:#1d1d1b;}.cls-4{fill:#aec90b;}</style></defs><polygon class="cls-2" points="34.42 152.04 34.37 153.68 38.08 153.68 38.04 159.5 22.7 159.46 22.7 157.39 22.66 146.21 38.04 146.21 38.04 152.04 34.42 152.04 34.42 152.04"/><polygon class="cls-2" points="104.07 156.53 104.07 159.5 97.19 159.39 97.15 146.21 110.58 146.21 110.99 146.41 111.53 146.72 112.03 147.11 112.48 147.58 112.84 148.09 113.11 148.56 113.11 154.19 112.39 154.81 116.86 158.45 116.46 159.58 107.59 159.46 104.07 156.53 104.07 156.53"/><polygon class="cls-2" points="139.48 152.19 139.52 156.22 139.48 156.38 139.34 157 139.12 157.59 138.75 158.1 138.35 158.57 138.03 158.84 137.67 159.07 137.26 159.27 136.85 159.39 136.58 159.5 125.68 159.5 125.05 159.46 124.46 159.31 123.87 159.07 123.38 158.72 123.29 158.64 123.24 158.57 122.74 157.98 122.56 157.63 122.43 157.28 122.34 156.92 122.43 148.87 122.65 148.44 123.01 147.82 123.51 147.27 124.06 146.8 124.69 146.45 125.1 146.21 136.76 146.21 137.26 146.57 137.89 147 138.44 147.54 138.89 148.17 139.21 148.87 139.25 148.99 139.43 149.69 139.48 150.44 139.48 152.19 139.48 152.19"/><polygon class="cls-2" points="148.57 146.21 152.77 146.21 155.35 148.79 158.07 146.21 165.75 146.21 166.03 146.88 158.56 154.19 158.52 159.54 151.69 159.5 151.69 154.19 144.14 146.92 144.41 146.21 148.57 146.21 148.57 146.21"/><polygon class="cls-2" points="85.03 152.04 84.98 153.68 88.64 153.68 88.64 159.5 73.27 159.46 73.22 157.39 73.22 146.21 88.6 146.21 88.64 152.04 85.03 152.04 85.03 152.04"/><polygon class="cls-1" points="24.78 157.39 24.74 148.29 35.95 148.29 35.95 149.93 27.5 149.93 27.45 151.88 32.34 151.88 32.29 153.52 27.45 153.52 27.45 155.75 35.95 155.75 35.95 157.39 24.78 157.39 24.78 157.39"/><polygon class="cls-1" points="99.23 148.29 110.12 148.29 110.4 148.44 110.62 148.64 110.85 148.87 111.03 149.11 111.03 153.25 110.4 153.72 109.67 153.99 108.9 154.15 108.14 154.11 112.3 157.47 108.36 157.39 104.34 154.11 101.99 154.11 101.99 157.39 99.27 157.35 99.23 148.29 99.23 148.29"/><polygon class="cls-3" points="101.99 149.97 108.04 149.93 108.5 150.55 108.54 150.79 108.59 151.06 108.59 151.61 108.36 152 108.09 152.39 101.99 152.43 101.99 149.97 101.99 149.97"/><polygon class="cls-1" points="125.59 148.29 136.18 148.29 136.49 148.56 136.81 148.87 137.08 149.22 137.26 149.62 137.35 150.04 137.4 150.47 134.64 151.06 134.64 149.97 126.77 149.97 126.81 155.75 134.68 155.75 134.68 153.84 130.43 153.8 130.43 152.16 137.4 152.16 137.44 156.1 137.35 156.38 137.26 156.61 137.13 156.85 136.94 157.04 136.63 157.28 136.27 157.43 125.37 157.43 124.91 157.28 124.73 157.12 124.55 156.88 124.42 156.57 124.51 149.38 124.69 149.03 125.23 148.48 125.59 148.29 125.59 148.29"/><polygon class="cls-1" points="148.57 148.29 151.91 148.29 155.35 151.69 158.88 148.29 161.59 148.29 156.48 153.29 156.44 157.47 153.77 157.43 153.77 153.29 148.57 148.29 148.57 148.29"/><polygon class="cls-1" points="75.3 157.39 75.3 148.29 86.56 148.29 86.56 149.93 78.06 149.93 78.01 151.88 82.94 151.88 82.9 153.52 78.01 153.52 78.06 155.75 86.56 155.75 86.56 157.39 75.3 157.39 75.3 157.39"/><polygon class="cls-3" points="106.42 122.18 105.96 122.37 105.47 122.49 107.77 124.29 108.04 124.56 108.32 124.91 108.54 125.5 108.63 126.09 108.68 126.71 108.59 127.3 108.5 127.61 107.5 129.84 106.46 131.99 105.33 134.14 104.11 136.21 104.02 136.29 102.89 137.85 101.71 139.34 101.58 139.49 100.54 140.39 99.45 141.25 98.32 141.99 97.1 142.66 96.69 142.81 95.47 143.05 94.25 143.13 92.98 143.01 91.76 142.78 91.31 142.58 90.9 142.31 90.59 141.92 90.36 141.49 90.27 141.21 88.33 139.49 86.38 137.81 86.02 137.46 85.79 137.03 85.66 136.52 85.66 136.01 85.75 135.43 85.97 134.84 86.34 134.33 86.74 133.9 87.24 133.55 87.78 133.28 88.42 133.12 89 133.12 89.59 133.24 89.86 133.36 90.14 133.51 91.94 134.8 93.8 136.05 94.21 136.09 94.57 136.01 95.47 135.08 96.2 133.98 96.87 132.46 97.51 130.93 98.05 129.33 98.5 127.73 96.51 127.69 94.57 127.73 94.48 127.84 94.25 128.12 93.98 128.35 93.66 128.55 93.3 128.67 92.85 128.78 92.35 128.82 91.85 128.82 91.4 128.74 91.04 128.63 90.68 128.47 90.41 128.24 90.14 127.96 88.05 125.03 86.07 122.02 85.84 121.63 85.75 121.2 85.75 120.77 85.79 120.34 86.07 119.68 86.43 119.09 86.74 118.78 87.06 118.5 87.92 118.04 88.73 117.49 89.1 117.29 89.46 117.17 90.32 117.02 91.22 117.06 92.08 117.06 94.75 116.51 97.42 115.85 98.59 115.42 99.18 115.22 99.77 115.14 100.36 115.14 100.94 115.22 101.26 115.3 101.58 115.46 103.7 116.59 105.92 117.6 106.28 117.8 106.6 118.07 106.87 118.39 107.05 118.74 107.14 118.93 107.5 118.27 108 117.64 108.5 117.1 109.13 116.63 109.63 116.32 110.12 116.04 110.53 115.92 111.03 115.85 111.53 115.88 111.98 115.96 112.48 116.16 128.44 116.04 128.53 116.04 129.21 115.85 129.89 115.77 130.3 115.81 130.75 115.88 131.16 116.08 131.56 116.32 131.92 116.59 132.24 116.98 132.78 118.04 133.24 119.13 133.51 120.26 133.64 121.44 133.6 121.87 133.46 122.29 133.24 122.73 132.96 123.04 132.69 123.27 132.38 123.47 132.01 123.66 131.65 123.78 131.29 123.86 130.93 123.9 130.16 123.82 129.75 123.66 129.35 123.43 129.03 123.12 128.49 122.33 128.17 122.02 127.81 121.75 127.36 121.59 123.51 121.63 123.47 129.25 123.51 136.87 123.47 137.3 123.38 137.69 123.15 138.08 122.88 138.4 122.47 138.71 122.07 138.95 121.57 139.1 121.12 139.14 120.62 139.14 120.12 139.02 119.67 138.83 119.26 138.55 117.5 137.34 115.78 136.01 115.42 135.62 115.15 135.12 115.01 134.53 114.96 133.9 115.01 133.28 115.19 132.69 115.37 132.34 115.6 131.99 115.87 131.71 115.96 129.17 116 126.67 116 124.13 115.91 121.59 113.02 121.59 112.48 121.98 111.57 122.92 111.17 123.43 110.85 123.78 110.49 124.01 110.04 124.21 109.58 124.25 108.95 124.25 108.36 124.13 107.77 123.86 107.23 123.55 106.91 123.27 106.69 122.92 106.55 122.57 106.42 122.18 106.42 122.18"/><polygon class="cls-1" points="111.84 118.23 128.71 118.15 129.21 118 129.57 117.88 129.98 117.84 130.25 117.92 130.48 118.11 130.88 118.89 131.25 119.75 131.43 120.61 131.56 121.51 131.34 121.67 131.11 121.79 130.84 121.83 130.61 121.79 130.34 121.36 130.07 120.97 129.71 120.61 129.35 120.3 128.94 120.03 128.53 119.79 128.08 119.64 127.58 119.52 121.48 119.56 121.39 128.24 121.43 136.91 121.21 137.03 120.98 137.07 120.71 137.03 120.53 136.87 118.76 135.74 117.14 134.45 117.04 134.18 117.04 133.94 117.14 133.4 117.9 132.57 118.04 129.33 118.08 126.05 118.04 122.8 117.86 119.56 112.34 119.48 111.53 120.07 110.8 120.73 110.08 121.44 109.49 122.18 109.22 122.18 108.95 122.14 108.5 121.9 108.54 121.36 108.63 120.85 108.77 120.38 109 119.87 109.22 119.44 109.54 119.01 109.9 118.66 110.31 118.31 110.99 117.96 111.21 117.92 111.44 117.96 111.66 118.07 111.84 118.23 111.84 118.23"/><polygon class="cls-1" points="94.97 120.46 93.71 120.42 92.49 120.46 92.49 120.85 92.53 121.28 94.21 123.82 98.14 123.86 102.12 123.86 102.93 123.47 103.43 123.47 103.97 123.98 106.46 125.89 106.55 126.13 106.6 126.36 106.6 126.59 106.55 126.83 105.65 128.98 104.61 131.05 103.52 133.12 102.35 135.12 101.26 136.56 100.13 138.01 99.23 138.83 98.28 139.53 97.24 140.2 96.2 140.78 95.25 140.98 94.25 141.02 93.26 140.98 92.31 140.78 92.12 140.08 89.95 138.12 87.69 136.21 87.74 136.01 87.83 135.82 87.96 135.62 88.1 135.47 88.46 135.23 88.91 135.19 90.9 136.6 92.89 137.97 93.62 138.12 94.3 138.16 95.02 138.05 95.7 137.81 96.38 137.19 96.96 136.48 97.55 135.74 98 134.96 98.5 133.94 99 132.89 99.81 130.7 100.13 129.6 100.45 128.47 100.9 126.2 100.63 125.93 100.27 125.7 97.01 125.62 93.75 125.7 93.21 126.13 92.76 126.67 92.26 126.75 91.81 126.71 89.77 123.86 87.83 120.93 87.92 120.61 88.1 120.34 89.05 119.79 89.95 119.17 90.45 119.09 91 119.13 91.67 119.17 92.35 119.13 95.2 118.54 98.05 117.8 99.36 117.33 99.95 117.21 100.54 117.25 101.67 117.88 102.8 118.46 105.11 119.52 105.29 119.95 105.38 120.42 102.8 120.54 100.18 120.58 97.6 120.58 94.97 120.46 94.97 120.46"/><polygon class="cls-3" points="29.22 136.33 29.4 136.52 29.62 136.83 29.8 137.19 29.89 137.54 29.98 137.93 30.03 138.28 29.98 138.67 29.94 139.02 29.85 139.41 29.71 139.77 29.58 140.08 29.4 140.35 29.17 140.59 28.9 140.78 28.63 140.94 27.86 141.33 27.14 141.8 26.46 142.31 25.82 142.85 25.51 143.09 25.15 143.28 24.47 143.48 23.79 143.48 23.07 143.32 22.43 143.01 22.02 142.7 21.75 142.27 21.53 141.8 21.48 141.25 21.48 125.19 19.54 127.77 17.68 130.39 18 130.78 18.23 131.25 18.32 131.75 18.32 132.26 18.14 132.77 17.91 133.28 17.59 133.75 17.23 134.14 16.87 134.37 16.46 134.53 16.05 134.61 15.6 134.61 15.47 134.65 15.01 134.96 14.43 135.31 14.06 135.43 13.7 135.51 13.34 135.54 12.62 135.39 12.3 135.19 11.98 134.96 11.76 134.69 6.87 128.08 6.87 136.72 6.83 137.23 6.65 137.69 6.42 138.01 6.2 138.28 5.92 138.51 5.65 138.71 5.34 138.87 4.97 138.98 4.61 139.06 4.25 139.06 3.84 139.02 3.12 138.75 2.49 138.32 2.12 137.93 1.85 137.42 1.67 137.03 1.45 136.68 1.18 136.33 .86 136.05 .63 135.82 .45 135.54 .18 134.96 0 134.37 0 133.75 .14 133.12 .41 132.42 .72 131.75 .86 131.52 .9 131.28 .99 128.82 1.04 126.36 1.04 123.9 .99 121.44 .27 120.18 .09 119.75 .04 119.32 .04 118.89 .18 118.46 .36 118.07 .63 117.76 .99 117.49 1.4 117.29 2.04 117.02 3.21 116.32 3.75 115.88 4.07 115.65 4.43 115.49 4.79 115.42 5.2 115.38 5.56 115.46 5.97 115.57 6.29 115.77 6.6 116 7.78 117.29 8.91 118.62 9.99 120.03 10.99 121.44 14.2 125.81 15.78 123.58 17.46 121.44 19.27 119.4 21.21 117.41 21.26 117.1 21.35 116.71 21.48 116.35 21.71 116.04 21.93 115.77 22.25 115.53 22.61 115.38 22.97 115.3 23.34 115.26 24.38 115.34 25.37 115.53 25.91 115.73 26.91 116.59 27.59 117.06 28.27 117.45 28.99 117.76 29.4 117.96 29.76 118.23 30.08 118.54 30.26 118.97 30.39 119.4 30.48 119.83 30.48 120.77 30.3 121.28 30.03 121.75 29.62 122.14 29.12 122.37 29.22 136.33 29.22 136.33"/><polygon class="cls-3" points="42.78 116.51 42.83 115.3 42.51 114.87 42.29 114.4 42.2 113.97 42.15 113.54 42.15 113.11 42.2 112.68 42.29 112.33 42.42 112.02 42.6 111.74 42.87 111.47 43.15 111.27 43.46 111.08 43.78 111 44.14 110.92 44.82 110.84 45.5 110.73 45.95 110.49 46.45 110.38 46.94 110.34 47.44 110.41 47.76 110.53 48.08 110.69 48.35 110.92 48.57 111.16 48.75 111.47 48.89 111.78 48.98 112.13 49.03 112.45 49.03 116.94 50.02 116.9 50.47 116.9 51.2 116.94 51.87 116.86 52.51 116.75 53.86 116.67 54.54 116.71 55.18 116.86 55.49 117.02 56.22 117.64 56.71 118 57.26 118.31 57.84 118.62 58.12 118.78 58.39 118.97 58.61 119.21 58.79 119.48 59.02 120.03 59.2 120.61 59.25 121.2 59.25 121.79 59.07 122.49 58.61 123.04 58.57 123.19 58.48 123.62 58.21 124.56 58.07 125.54 58.07 126.91 57.98 128.27 57.98 128.39 57.84 128.98 57.71 129.53 57.66 129.99 57.66 130.7 57.57 131.21 57.44 131.68 57.26 132.14 57.03 132.57 56.76 132.97 56.4 133.36 56.04 133.67 55.63 133.98 51.87 136.13 51.74 136.17 50.11 136.99 48.57 137.85 48.57 139.41 48.89 140 48.98 140.2 49.12 140.7 49.16 141.25 49.12 141.76 48.98 142.27 48.8 142.78 48.48 143.21 48.12 143.6 47.71 143.95 47.26 144.18 46.31 144.38 45.41 144.46 44.46 144.34 43.55 144.1 42.96 143.79 42.51 143.36 42.15 142.81 41.92 142.23 41.83 141.6 41.92 140.98 42.15 140.35 42.51 139.84 42.56 138.44 41.43 137.89 40.34 137.3 39.3 136.64 38.31 135.9 37.54 135.23 36.86 134.53 36.18 133.79 35.55 133.04 34.96 132.22 34.42 131.36 33.92 130.5 33.51 129.6 33.11 128.67 32.79 127.73 32.52 126.79 32.29 125.81 32.16 124.8 32.02 123.82 31.97 122.8 32.02 121.83 31.84 121.55 31.61 121.08 31.52 120.58 31.57 120.07 31.7 119.56 32.11 118.89 32.65 118.35 32.97 118.07 33.38 117.92 33.96 117.68 34.51 117.41 35.05 117.06 35.55 116.67 35.77 116.51 36.04 116.35 36.63 116.2 37.22 116.16 37.81 116.16 38.4 116.28 38.94 116.47 42.78 116.51 42.78 116.51"/><polygon class="cls-1" points="44.73 118.62 45 114.48 44.32 113.81 44.23 113.42 44.28 112.99 45.36 112.88 46.49 112.6 46.67 112.45 46.94 112.45 46.94 115.73 46.99 119.05 48.57 119.05 50.2 118.97 51.24 119.01 53.32 118.78 54.36 118.78 54.95 119.29 55.58 119.75 56.26 120.15 56.94 120.5 57.08 120.73 57.16 121.01 57.16 121.55 56.89 121.87 56.71 122.22 56.58 122.57 56.49 122.96 56.17 124.21 55.99 125.46 55.99 126.79 55.9 128.12 55.81 128.55 55.67 128.98 55.58 129.76 55.58 130.54 55.49 131.01 55.27 131.48 54.95 131.87 54.59 132.18 50.83 134.33 48.66 135.43 46.49 136.64 46.49 138.32 46.54 140 46.99 140.9 47.08 141.25 47.04 141.64 46.85 141.95 46.58 142.19 46 142.35 45.45 142.38 44.86 142.31 44.28 142.15 44.14 142.03 44 141.88 43.91 141.72 43.91 141.49 44 141.33 44.14 141.17 44.32 141.06 44.5 141.02 44.64 138.98 44.64 136.95 43.28 136.44 42.01 135.86 40.79 135.12 39.62 134.29 38.26 133.04 37.67 132.34 37.08 131.6 36.54 130.85 36.04 130.07 35.64 129.25 35.23 128.39 34.91 127.53 34.64 126.67 34.42 125.77 34.24 124.88 34.05 123 34.05 122.1 34.15 121.16 33.6 120.46 33.78 120.15 34.01 119.87 34.82 119.6 35.55 119.21 36.27 118.78 36.9 118.23 37.31 118.23 37.72 118.27 38.12 118.39 38.49 118.54 44.73 118.62 44.73 118.62"/><path class="cls-3" d="M155.89,134.65l-.27.86-.36.78-.45.74-.99,1.29-.77.08-.72.04-.68-.04-1.18-.2-1.9.08-3.89-.08-1.94-.16-.18.78h-2.99l-.45-.35-.86-.59-1.81-1.02-.95-.43-.68-.31-.27-.62-.18-.66-.05-.66.14-.66.27-.63.41-.47.09-10.08-1.18.16v-2.07l.04-.98.14-1.68,1.67-.04.63-.04.59-.16.45-.23.41-.35.54-.35.5-.43.45-.51.63-.12.86-.08.86.08,1.58.31-.04.86,6.01-.12.63-.16.63-.04h.68l.54.47.59.55.5.63.45.63.41.7.32.7.27.74.18.78.14.78.14,1.02-.81.62-.5.35-.54.27-.63.16-.63.08-.95-.12-.5.66-.23.66-.14.74-.09.7-.04.74-.04,1.72-1.72.12h-.68l-.63-.08-1.18-.24-.32-1.25-2.62-.12.14,4.65,1.85.2,1.9.08h1.85l1.9-.16.5-.23.36-.39.27-.47.18-.55.18-1.6h4.12l.32,1.76.45-.2.09-9.11-1.31-.39-.09-1.56.04-.74.18-.67.27-.78.77-.31,1.13-.51,1.13-.55,1.09-.59,1.09-.63.9-.16h.95l1.54.2.04.7.86-.16,5.29-.12,1.18-.23h1.54l.68.27.41.31.36.39.54.47.45.51.41.59.32.63.09.39v.78l-.18.78-.13.35-.18.35-.23.35-.27.19-.18.31-.09.31v.35l.14.59-.27.55-.18.31-.18.27-.23.23-.27.2-.32.2-.32.12-.63.16-.59.27.72,1.41.81,1.37.9,1.33,1,1.25,1.04,1.21,1.08,1.13,1.18,1.09,1.27.98.32.23.41.2,3.44,1.45-.23,1.6-3.71.51-.59.16-.59.27-.54.35-.45.47-.36.47-.59.2-.72.08-.68-.08-.68-.2-.63-.31-.81-.78-.77-.86-1.09-1.33-.95-1.37-.9-1.49-.72-1.56-.81-1.45-.9-1.41-.91-1.37-.99-1.37-.18-.23-.23-.24-.54-.31-.41.04-.36.08-.36.16-.32.23-.09,10.71-1.81.08-1.04-.04-1-.08-.5-.86-.41-.62-.54-.55-.59-.43-.68-.39-.41-.31-.36-.43-.27-.51h0ZM149.38,122.96l-.68-.82-.54-.62-2.8-.08-2.76.04-.04,2.27,3.26-.04.32-.7,1.08-.12h1.49l.68.08h0ZM165.21,122.49l1.04-.35,1.08-.27,1.08-.23,1.09-.2.54-.51-.68.04-.68.08-.63.59h-.77l-.63-.04-.59-.2-.5.31-.41.31-.41.35-.41.39.86-.27h0Z"/><polygon class="cls-3" points="82.72 132.65 83.17 133.24 83.53 133.9 83.98 134.96 83.22 135.86 82.27 136.91 81.41 138.05 81 138.55 80.37 138.71 79.82 138.83 79.24 138.91 77.25 139.06 77.25 133.71 66.75 125.27 66.71 137.89 65.89 138.44 65.44 138.63 64.99 138.79 64.54 138.87 64.04 138.83 63.41 138.55 62.68 138.05 62.05 137.38 61.51 136.68 61.05 135.86 60.87 135.43 60.74 135 60.65 134.06 60.65 133.59 60.83 132.73 61.01 132.3 60.96 120.89 59.88 119.99 60.51 118.66 60.92 117.88 61.33 117.14 62.19 116.94 62.64 116.82 63.09 116.63 63.5 116.39 63.9 116.08 65.08 114.99 77.16 124.83 77.11 114.16 75.44 112.68 77.07 111.27 77.74 110.84 78.42 110.49 79.51 110.06 80.37 110.84 81.59 111.9 82.9 112.88 84.12 113.77 83.53 115.14 83.22 115.69 82.9 116.16 82.72 132.65 82.72 132.65"/><polygon class="cls-2" points="100.54 15.91 100.04 16.49 99.5 17.04 99.23 17.47 99 17.9 98.73 19.11 99 19.7 99.23 20.32 99.27 20.87 99.23 21.42 99.09 21.97 98.86 22.47 99.23 22.83 99.5 23.22 99.72 23.69 99.9 24.15 100.04 24.62 100.09 25.13 100.09 25.6 100 26.11 99.77 27.12 99.5 28.14 99.41 28.61 99.5 29.12 99.9 30.49 100.27 31.85 100.58 33.26 100.81 34.67 100.81 35.33 100.63 35.96 100.36 36.54 99.95 37.05 99.18 37.79 99.14 38.77 99.04 39.71 98.86 40.69 98.64 41.62 98.5 42.33 98.41 43.07 98.41 43.77 98.46 44.52 98.91 45.92 99.77 48.35 100.58 50.81 100.72 51.36 100.76 51.94 100.76 52.53 100.72 53.12 100.58 53.66 100.4 54.21 100.13 54.76 99.86 55.23 98.86 56.63 97.82 57.96 97.64 59.17 97.37 60.39 96.69 61.95 95.92 63.47 95.56 64.18 95.29 64.96 95.11 65.7 95.02 66.52 95.02 66.91 95.11 67.3 95.29 68.2 95.38 69.06 95.38 69.96 95.29 70.86 95.25 71.52 95.25 72.19 95.34 72.81 95.43 73.48 95.74 74.81 95.92 76.14 95.92 77.5 95.83 78.87 95.52 79.54 95.2 80.01 94.88 80.51 95.02 81.96 95.07 83.41 94.93 84.85 94.66 86.3 94.61 86.81 94.61 87.35 94.7 87.9 94.79 88.41 94.93 88.92 95.16 89.42 95.38 89.89 95.7 90.36 95.92 90.75 96.15 91.18 96.29 91.61 96.42 92.08 96.51 93.02 96.47 93.49 96.38 93.96 96.24 94.58 96.01 95.17 95.79 96.26 95.7 97.4 95.52 98.65 95.38 99.24 95.16 99.82 95.29 100.45 95.38 100.84 95.38 101.7 95.29 102.09 95.02 102.71 94.57 103.26 94.57 104.08 94.66 104.82 94.66 105.57 94.57 106.31 94.43 107.05 94.25 107.79 93.98 108.5 93.62 109.16 93.21 109.79 91.76 112.33 91.18 112.95 90.5 113.5 89 114.52 87.96 113.07 87.56 112.41 87.29 111.7 87.24 110.92 87.29 110.18 87.47 109.44 87.74 108.73 88.01 107.99 88.15 107.17 88.33 105.88 88.6 104.59 88.6 103.89 88.46 103.22 88.37 102.44 88.19 101.7 87.96 100.92 87.69 100.21 87.33 99.51 86.92 98.81 86.47 98.18 85.97 97.59 85.79 97.24 85.66 96.89 85.48 96.19 85.48 95.44 85.57 95.05 85.66 94.7 86.11 93.84 86.65 93.06 86.29 91.85 86.07 90.6 85.88 89.35 85.84 88.06 86.02 86.22 86.25 84.38 86.34 83.6 86.25 82.86 86.07 82.12 85.79 81.41 85.43 80.63 85.21 79.81 85.12 78.91 85.07 77.97 85.12 77.04 85.25 76.14 85.43 74.96 85.43 73.79 85.3 73.28 85.03 72.85 84.35 71.84 83.76 70.74 83.58 70.31 83.49 69.88 83.44 69.41 83.44 68.95 83.49 68.48 83.58 68.05 83.76 67.62 83.98 67.19 84.62 66.01 85.21 64.76 85.75 63.51 86.2 62.22 86.43 61.48 86.65 60.7 86.74 59.88 86.83 59.1 86.92 58.04 87.15 56.99 87.47 55.97 87.92 54.99 88.05 54.72 88.15 54.45 88.15 53.82 87.96 53.08 87.78 52.37 87.56 51.67 87.24 51 86.88 50.15 86.61 49.25 86.38 48.35 86.25 47.41 86.16 46.47 86.16 45.53 86.2 44.6 86.34 43.7 86.52 42.84 86.65 41.98 86.74 41.12 86.79 40.22 86.79 39.51 86.65 38.85 86.38 38.19 85.97 37.64 85.66 37.17 85.39 36.66 85.25 36.15 85.16 35.61 85.21 34.79 85.39 33.96 85.79 32.17 85.57 31.66 85.39 31.07 85.25 30.49 85.21 29.9 85.16 29 85.21 28.06 85.3 27.16 85.43 26.26 85.61 25.33 85.66 24.35 85.03 23.69 84.35 23.06 83.8 22.32 83.53 21.77 83.35 21.22 83.26 20.6 83.31 20.01 83.44 19.54 83.62 19.11 83.89 18.72 84.21 18.37 84.39 18.06 84.48 17.71 84.35 16.65 84.12 15.63 83.94 14.85 83.89 14.07 83.62 13.72 83.31 13.45 82.36 12.78 81.9 12.94 81.41 13.02 80.91 13.02 80.46 12.98 79.96 12.82 79.55 12.62 79.15 12.39 78.74 12.08 78.2 12.04 77.7 11.92 77.83 12.39 77.92 12.86 78.06 13.99 77.16 14.62 77.2 15.24 77.29 15.95 77.34 16.65 77.25 17.12 77.11 17.63 76.88 18.06 76.57 18.45 75.93 19 75.21 19.42 74.44 19.89 73.72 20.4 73.63 21.38 73.63 23.29 73.67 24.27 74.17 24.58 74.62 24.94 75.35 25.56 75.21 26.54 75.03 27.55 74.71 28.53 74.31 29.51 73.81 30.41 73.36 31.11 73 31.85 72.9 32.25 72.9 33.07 73 33.46 73.31 34.94 73.54 36.5 73.49 37.21 73.4 37.95 73.4 38.22 73.49 38.77 73.63 39.01 74.17 40.18 74.71 41.39 74.94 42.17 75.08 43.03 75.17 43.38 75.35 43.7 76.52 45.26 76.75 45.65 76.97 46.08 77.16 46.51 77.29 46.94 77.34 47.57 77.34 48.15 77.16 48.78 76.93 49.33 75.98 50.97 75.21 52.69 75.08 53.19 75.08 53.7 75.17 54.25 75.35 54.72 75.57 55.23 75.71 55.73 75.71 56.28 75.62 56.83 75.39 57.57 75.03 58.31 75.44 58.74 75.75 59.21 76.03 59.72 76.25 60.27 76.39 60.82 76.48 61.4 76.48 61.99 76.39 62.54 76.03 64.1 75.48 65.62 74.26 70.35 73.67 72.07 73.54 73.13 73.49 74.14 73.67 75.2 73.94 76.21 74.17 76.96 74.35 77.74 74.49 78.56 74.53 79.38 74.53 80.16 74.49 80.98 74.35 81.76 74.17 82.59 73.94 84.23 73.81 85.91 73.76 87.55 73.85 89.23 73.9 90.52 73.85 91.85 73.76 93.14 73.58 94.43 73.58 94.98 73.72 95.48 73.9 96.15 74.04 96.81 74.12 97.52 74.12 98.22 74.53 99.04 75.12 99.66 75.26 100.17 75.39 100.92 75.53 101.54 74.71 103.14 75.57 107.79 74.8 108.22 70.6 104.86 69.87 102.75 69.96 101.5 69.96 100.8 69.74 100.21 69.24 99.63 68.88 98.88 68.56 98.14 68.11 96.46 67.7 94.7 67.43 92.98 67.25 91.22 67.16 89.82 66.93 88.45 66.62 87.08 66.21 85.75 65.58 84.34 65.04 82.86 64.9 82.43 64.81 81.96 64.81 81.06 64.85 80.63 64.94 80.2 65.08 79.77 65.26 79.34 64.81 78.64 64.45 77.9 64.27 77.31 64.18 76.72 64.18 76.1 64.31 75.51 64.58 74.69 63.68 73.95 63.41 73.67 63.14 73.36 62.91 73.01 62.73 72.66 62.59 72.03 62.59 71.45 62.68 70.86 62.77 70.31 62.95 69.77 63.14 69.26 63.36 68.75 63.63 68.24 64.27 67.3 64.58 66.87 64.85 66.44 65.08 65.97 65.26 65.47 65.44 64.45 65.44 63.9 65.4 63.39 65.12 61.79 64.9 59.17 64.9 58.9 64.81 58.63 64.67 58.39 64.49 58.2 64.18 57.77 63.95 57.34 63.77 56.83 63.68 56.32 63.72 55.58 63.9 54.88 64.36 53.58 64.18 52.88 64.08 51.47 64.13 50.81 64.18 50.11 64.08 49.4 63.23 46.35 62.28 43.31 62.1 42.56 61.82 41.9 60.6 39.94 60.2 39.36 59.92 38.69 59.74 37.99 59.61 37.29 59.65 36.5 59.74 35.72 61.01 29.78 61.42 28.57 61.91 27.36 61.64 25.48 61.69 24.82 61.82 24.19 62 23.61 62 23.33 61.96 23.06 61.69 22.2 61.46 21.38 60.6 20.83 60.24 20.6 59.88 20.32 59.34 19.62 59.11 19.07 58.97 18.45 58.97 17.82 59.11 17.24 59.38 16.46 59.16 15.91 58.93 15.56 58.61 15.32 57.3 15.05 54.41 14.5 53 14.11 51.6 13.64 50.7 13.76 49.84 13.84 48.93 13.8 48.44 13.72 48.03 13.41 47.62 12.9 47.44 12.58 47.35 12.31 47.26 11.96 47.22 11.65 47.22 11.3 47.26 10.98 47.49 10.47 47.76 10.01 48.48 9.15 49.07 8.79 49.66 8.52 50.34 8.36 51.56 8.36 52.55 8.05 53.5 7.58 54.41 7.15 55.36 6.84 56.35 6.61 57.35 6.49 60.56 6.33 61.01 6.25 61.46 6.14 61.91 5.9 62.28 5.63 62.86 5.12 63.63 5 64.49 4.3 65.44 3.71 66.12 3.63 66.8 3.71 67.12 3.83 67.43 3.99 67.7 4.14 67.97 4.38 68.34 4.77 68.7 5.08 69.15 5.35 69.65 5.55 74.67 5.75 75.08 6.02 75.48 6.33 75.8 6.68 76.12 7.07 76.61 6.49 77.16 6.02 77.79 5.63 78.47 5.32 78.69 4.57 79.24 4.18 79.73 3.83 80.32 3.63 80.95 3.52 81.54 3.52 82.13 3.6 82.58 3.95 83.35 3.4 84.12 2.97 84.98 2.62 85.84 2.35 89.05 1.8 90.09 1.37 91.04 .59 91.76 .2 92.17 .08 92.58 0 93.08 0 93.53 .08 93.93 .27 94.34 .51 95.83 1.6 97.42 2.58 99 3.48 100.67 4.26 101.17 4.53 101.62 4.96 101.99 5.43 102.21 5.98 102.3 6.49 102.39 7.04 103.21 7.11 103.61 7.23 104.07 7.43 104.43 7.7 104.79 8.01 105.02 8.29 105.2 8.6 105.33 8.95 105.42 9.3 106.96 8.83 108.45 8.21 109.04 7.9 109.49 7.5 109.85 7 110.12 6.45 110.31 5.86 110.8 5.51 111.35 5.16 111.89 4.85 112.52 4.61 113.11 4.38 113.79 3.83 114.51 3.32 115.05 3.13 115.73 3.09 116.41 3.21 117.14 3.4 117.5 4.03 117.77 4.34 118.13 4.53 119.17 4.77 120.26 4.96 120.89 5.16 121.43 5.43 121.93 5.82 122.34 6.29 123.24 7.58 124.91 8.09 124.6 9.73 124.51 10.32 124.91 10.63 125.32 11.02 125.64 11.49 125.86 12 126.04 12.58 126.09 13.13 126 14.07 125.82 15.01 126.41 15.63 126.59 15.99 126.72 16.3 126.81 16.65 126.86 17 126.86 17.59 126.59 18.1 125.32 20.13 125.32 20.91 125.28 21.3 125 22.08 124.82 22.43 124.6 22.79 124.37 23.1 123.42 24.15 122.79 26.38 122.25 28.65 122.02 29.24 121.75 29.82 121.48 30.37 121.12 30.92 120.98 31.27 120.8 31.62 120.71 31.97 120.66 32.36 120.8 33.57 120.8 34.82 120.75 36.04 120.57 37.25 121.16 37.72 121.48 38.11 121.7 38.54 121.88 38.97 121.97 39.48 121.88 40.65 121.43 42.99 121.07 44.13 120.71 45.65 120.71 45.96 120.75 46.28 120.84 46.59 120.98 46.86 122.52 49.17 122.92 50.03 123.24 50.89 123.51 51.83 123.69 52.76 123.74 53.7 123.74 54.68 123.65 55.62 123.42 56.56 123.29 57.57 122.97 58.63 122.7 59.33 122.34 60.03 121.97 60.7 121.52 61.36 120.93 62.26 120.89 62.73 120.98 63.2 122.07 65.82 122.29 66.68 122.38 67.58 122.34 68.44 122.11 69.3 121.57 70.43 120.89 71.49 120.62 71.95 120.39 72.42 121.21 74.38 121.48 75.08 121.61 75.82 121.61 76.61 121.52 77.35 121.43 77.74 121.25 78.17 120.89 79.15 120.71 80.2 120.66 81.26 120.75 82.31 121.43 84.66 121.61 85.13 121.48 85.63 121.3 86.38 120.98 87.12 120.62 87.78 120.21 88.45 119.71 89.86 118.95 91.03 118.27 92.28 117.63 93.57 117.14 94.86 117.18 95.25 117.32 95.56 118.31 96.89 117.04 98.18 116.73 98.92 116.28 99.27 115.82 99.71 113.56 102.67 112.61 102.36 112.48 98.65 112.43 97.55 112.3 96.5 112.16 95.41 111.93 94.35 111.8 93.84 111.75 93.29 111.75 92.75 111.84 92.2 111.89 91.65 111.89 91.11 112.34 88.41 112.3 87.75 112.07 87.08 111.62 86.06 111.21 84.97 111.08 84.58 110.99 84.15 110.94 83.68 110.94 83.25 110.99 82.82 111.08 82.39 111.21 81.96 111.39 81.57 112.07 80.32 112.7 79.03 112.84 78.68 112.84 78.33 112.79 77.97 112.7 77.62 112.48 77.11 112.3 76.61 112.16 76.06 112.07 75.51 112.12 74.65 112.25 73.75 112.48 72.93 112.84 72.11 113.2 71.37 113.52 70.59 113.61 69.92 113.65 69.26 113.65 68.55 113.56 67.89 113.47 66.91 113.43 65.9 113.47 64.92 113.61 63.9 113.83 62.57 113.97 61.21 113.97 59.8 113.88 58.43 113.7 57.49 113.47 56.56 113.16 55.62 112.79 54.72 112.52 54.13 112.34 53.51 112.21 52.84 112.12 51.51 112.16 50.89 112.25 50.22 112.39 49.6 113.07 47.49 113.11 47.21 113.02 46.98 112.34 45.61 111.57 44.28 111.03 43.31 110.62 42.21 110.31 41.12 110.17 39.98 110.22 39.16 110.31 38.34 110.44 37.52 110.62 36.7 110.71 36.23 110.76 35.76 110.76 35.25 110.71 34.79 110.22 34.24 109.81 33.61 109.67 33.3 109.58 33.03 109.54 32.67 109.54 32.36 109.58 32.05 109.67 31.74 109.76 31.46 109.94 31.19 110.62 30.33 111.75 29.08 111.57 28.69 111.44 28.26 111.35 27.83 111.3 27.36 111.35 26.77 111.48 26.19 111.62 25.64 111.84 25.05 111.66 24.31 111.57 23.88 111.53 23.45 111.53 23.02 111.57 22.63 111.71 21.81 111.8 21.03 111.84 20.21 111.84 19.42 111.8 19.03 111.71 18.68 111.35 18.06 110.99 17.82 110.62 17.67 110.26 17.55 109.85 17.55 107.1 17.51 106.15 17.43 105.2 17.16 104.34 16.77 103.52 16.22 102.98 16.18 101.4 16.22 100.54 15.91 100.54 15.91"/><path class="cls-1" d="M164.76,125.66l-.45.04-.45.12-.41.16-.45.19-.36.27-.36.31-.32.31-.27.39-.05,9.54h-.86l-.54-.86-.68-.74-.81-.62-.86-.47-.23-.27-.09-.31.04-.35.09-.31.27-.2.23-.27.18-.27.14-.31v-9.19l.09-1.17-.09-1.17-1.36-.12.04-.31.09-.35,1.13-.47,1.09-.55,1.09-.59,1.04-.66.5-.04h.45v.47l-.04.43-.9.43.05.86.14.86.81-.78.41-.35.91-.62.45-.24.5-.16.54-.12,3.17-.12,3.21-.04,1.18-.2.23.2.18.27.41.27.36.31.32.39.23.43.04.27v.31l-.09.27-.13.23-.32.27-.45.62-.18.39-.09.35-.04.39-.04.43.09.39-.14.16-.14.12-.13.08-.18.04-.81.12-.77.27-.77.35-.63.47-.81.04v-.16l-.09-.16-.09-.08-.14-.08h-.68l-.63.04-.09.2-.04.16.04.2.05.16.45.12h.41l.72.19.72.27.59.43.54.55.77,1.49.86,1.45.95,1.41,1.04,1.33,1.09,1.29,1.18,1.21,1.27,1.09,1.31,1.06.54.39.59.27-.5.08-.5.16-.91.39-.41.27-.41.31-.36.35-.32.35-.27.08-.54-.08-.23-.16-.68-.62-.63-.74-1.04-1.21-.9-1.33-.81-1.37-.68-1.45-.86-1.49-.9-1.48-.95-1.41-1-1.41-.32-.43-.36-.39-.45-.31-.45-.23-.27-.2-.27-.12-.36-.04-.32.04h0ZM165.8,124.25l1.9-.55,1-.2,1-.16.36-.12.36-.16.32-.2.32-.27.54-.59.23-.31.18-.31.09-.35.09-.39-.04-.35-.04-.39-.14-.35-.23-.31-.86-.16-.9-.04h-.9l-.86.12-.5.27-.41.31-.41-.12-.41-.23-1.08.43-1.04.55-.91.74-.45.39-.36.43-.09.47-.04.51-.18.63-.09.66v.67l.04.62,1.76-.67,1.76-.58h0Z"/><polygon class="cls-1" points="137.08 120.54 136.49 120.38 135.91 120.38 135.95 119.6 136.85 119.52 137.8 119.29 138.44 118.97 138.98 118.5 139.39 118.27 139.79 118 140.11 117.72 140.43 117.37 140.97 117.33 141.47 117.37 141.38 117.72 141.42 118.07 141.6 118.39 141.83 118.62 149.79 118.46 150.2 118.31 150.65 118.27 151.1 118.7 151.46 119.17 151.82 119.68 152.14 120.22 152.41 120.77 152.64 121.36 152.77 121.94 152.86 122.57 152.59 122.76 152.32 122.88 152 123 151.69 123 151.37 122.65 151.15 122.26 150.69 121.59 150.15 120.97 149.56 120.26 148.84 119.68 145.49 119.56 142.15 119.6 141.65 119.79 141.24 120.11 140.92 120.5 140.74 121.01 140.65 125.66 146.67 125.58 146.89 125.42 147.12 125.23 147.39 124.76 147.98 124.72 148.57 124.76 148.3 125.62 148.07 126.48 147.93 127.34 147.89 128.24 147.48 128.24 147.08 128.2 146.76 126.63 144.04 126.55 141.38 126.59 140.92 126.99 140.79 127.26 140.7 127.57 140.65 133.71 141.02 134.1 141.42 134.45 141.87 134.76 142.33 135 144.41 135.19 146.49 135.27 148.57 135.23 150.65 135.04 151.19 134.84 151.64 134.57 152.1 134.22 152.5 133.83 152.82 133.4 153.09 132.89 153.27 132.38 153.41 131.83 154.27 131.83 154.31 132.46 154.31 133.08 154.22 133.71 154.09 134.33 153.86 134.92 153.59 135.47 153.27 136.01 152.86 136.52 152.28 136.44 151.69 136.33 149.16 136.44 146.62 136.4 144.09 136.33 141.56 136.09 141.38 136.25 141.2 136.48 141.11 136.72 141.11 136.95 140.2 136.95 139.25 136.33 138.26 135.74 136.27 134.72 136.18 134.53 136.18 134.33 136.22 134.1 136.27 133.94 136.54 133.67 136.81 133.36 136.94 133 137.08 132.61 137.08 120.54 137.08 120.54"/><polygon class="cls-1" points="80.86 133.55 81.14 133.75 81.41 133.98 81.63 134.29 81.81 134.61 80.86 135.74 79.91 136.91 79.1 137.03 79.1 132.85 64.9 121.36 64.63 136.95 64.04 136.6 63.54 136.13 63.14 135.66 62.77 135.08 62.59 134.57 62.5 134.06 62.59 133.36 62.86 132.73 62.82 119.99 62.19 119.48 62.55 118.78 63.27 118.58 63.95 118.31 64.58 117.92 65.17 117.45 79.01 128.74 79.05 113.54 78.69 113.11 78.29 112.72 78.69 112.45 79.1 112.21 80.41 113.34 81.81 114.4 81.5 114.91 81.18 115.06 80.91 115.3 80.86 133.55 80.86 133.55"/><polygon class="cls-4" points="90.45 104.86 90.45 103.93 90.32 102.95 90.18 102.09 90 101.19 89.77 100.33 89.41 99.47 89.05 98.69 88.6 97.91 88.05 97.16 87.51 96.46 87.38 96.23 87.33 95.95 87.33 95.72 87.38 95.44 87.69 94.82 88.1 94.23 88.42 93.8 88.6 93.29 88.64 93.02 88.6 92.79 88.24 91.65 87.96 90.52 87.78 89.35 87.74 88.17 87.87 86.42 88.1 84.66 88.19 84.11 88.19 83.6 88.15 83.05 88.1 82.55 88.01 82 87.83 81.49 87.65 81.02 87.2 80.01 87.06 79.5 86.97 78.75 86.97 77.97 87.01 77.23 87.11 76.49 87.24 75.75 87.33 74.26 87.29 73.56 87.2 73.05 87.01 72.58 86.79 72.15 86.52 71.72 85.93 70.86 85.48 69.96 85.34 69.53 85.3 69.06 85.39 68.59 86.29 66.87 86.88 65.58 87.47 64.22 87.96 62.85 88.24 61.95 88.46 61.05 88.64 60.11 88.69 59.17 88.78 58.31 88.96 57.49 89.23 56.67 89.55 55.89 89.82 55.34 89.95 54.72 90.04 54.13 90 53.51 89.82 52.65 89.59 51.83 89.28 51 88.96 50.22 88.64 49.48 88.42 48.74 88.24 48 88.1 47.21 88.01 46.43 88.01 45.65 88.05 44.87 88.15 44.09 88.37 43.15 88.51 42.21 88.69 40.33 88.69 39.79 88.64 39.28 88.55 38.73 88.42 38.22 88.24 37.76 88.01 37.25 87.38 36.39 87.24 36.19 87.15 36 87.06 35.76 87.01 35.53 87.06 35.02 87.15 34.51 87.6 32.83 87.69 32.4 87.69 32.01 87.65 31.62 87.51 31.23 87.2 30.53 87.06 29.74 87.01 28.96 87.06 28.18 87.15 27.44 87.29 26.66 87.47 25.44 87.51 24.23 87.51 24 87.42 23.76 87.2 23.33 86.74 22.79 86.25 22.32 85.75 21.81 85.34 21.26 85.25 21.07 85.16 20.83 85.12 20.6 85.12 20.36 85.3 20.01 85.52 19.66 85.88 19.23 86.16 18.72 86.29 18.17 86.34 17.63 86.2 16.38 85.93 15.16 85.79 14.5 85.79 13.84 85.75 13.48 85.57 13.17 85.03 12.51 84.39 11.96 82.58 10.63 81.77 11.02 81.5 11.1 81.23 11.14 80.95 11.14 80.68 11.1 80.41 10.98 80.19 10.83 80 10.63 79.82 10.4 78.96 10.12 78.74 10.2 78.47 10.2 78.2 10.16 77.97 10.01 77.79 9.85 77.65 9.62 77.61 9.34 77.61 9.11 77.34 8.48 77.74 8.01 78.2 7.62 78.74 7.31 79.33 7.11 79.69 6.84 79.96 6.49 80.19 6.1 80.32 5.67 80.55 5.51 80.82 5.43 81.09 5.39 81.36 5.39 81.86 5.67 82.4 5.86 82.94 5.86 83.53 5.71 84.12 5.2 84.75 4.77 85.48 4.42 86.25 4.18 89.55 3.6 91.08 2.97 92.12 2.15 92.53 1.99 92.98 1.91 94.66 3.09 96.33 4.14 98.1 5.12 99.9 5.98 100.22 6.18 100.4 6.49 100.49 6.96 100.49 7.43 100.58 8.21 100.72 8.48 100.94 8.68 101.35 8.83 101.76 8.87 102.89 8.95 103.21 9.18 103.48 9.46 103.43 9.85 103.34 10.24 102.62 10.47 101.8 10.55 100.94 11.22 100.13 12 99.9 12.27 99.77 12.55 99.68 12.9 99.63 13.21 99.59 13.64 99.5 14.07 99.27 14.46 99 14.81 98.14 15.75 97.87 16.1 97.64 16.46 97.42 16.85 97.24 17.28 97.01 17.78 96.74 18.33 96.65 18.64 96.69 19 96.87 19.54 97.1 20.05 97.28 20.4 97.42 20.79 97.42 21.11 97.33 21.42 96.83 22.28 96.69 22.55 96.6 22.83 96.6 23.02 96.65 23.22 96.74 23.41 96.92 23.53 97.37 23.88 97.78 24.27 98.05 24.74 98.19 25.25 98.14 25.8 97.96 26.7 97.69 27.55 97.6 28.1 97.55 28.65 97.6 29.2 97.73 29.7 98.1 30.96 98.46 32.25 98.73 33.57 98.95 34.86 98.95 35.1 98.91 35.33 98.77 35.57 98.64 35.76 97.87 36.43 97.42 36.86 97.33 37.13 97.28 37.4 97.28 38.34 97.24 39.28 97.06 40.22 96.83 41.12 96.65 42.06 96.56 42.99 96.51 43.93 96.6 44.87 96.87 45.73 97.19 46.59 98 48.93 98.77 51.32 98.86 51.71 98.91 52.06 98.91 52.45 98.86 52.8 98.77 53.16 98.5 53.86 98.32 54.17 97.42 55.42 96.42 56.59 96.2 56.91 96.06 57.26 95.92 57.65 95.88 58.04 95.74 58.94 95.61 59.8 94.97 61.21 94.3 62.57 93.84 63.47 93.48 64.45 93.26 65.43 93.12 66.44 93.17 67.11 93.3 67.77 93.44 68.48 93.53 69.18 93.53 69.92 93.44 70.63 93.39 71.45 93.39 72.31 93.48 73.13 93.62 73.95 93.89 75.04 94.03 76.18 94.07 77.31 94.03 78.4 93.44 79.3 92.94 80.28 93.17 81.69 93.21 83.09 93.08 84.54 92.85 85.95 92.76 86.65 92.76 87.39 92.85 88.1 92.98 88.8 93.17 89.5 93.44 90.17 93.75 90.83 94.16 91.42 94.43 91.93 94.57 92.43 94.61 93.02 94.52 93.57 94.43 94.08 94.25 94.58 94.07 95.25 93.93 95.95 93.84 96.62 93.8 97.32 93.71 98.26 93.57 98.81 93.35 99.31 93.26 99.59 93.26 99.9 93.48 100.92 93.53 101.23 93.53 101.54 93.44 101.74 93.3 101.85 92.98 102.05 92.67 103.03 92.67 104.24 92.76 104.82 92.76 105.41 92.71 106.04 92.62 106.62 92.44 107.21 92.22 107.76 91.94 108.3 91.63 108.81 90.27 111.23 89.91 111.63 89.46 111.98 89.28 111.66 89.14 111.31 89.1 110.84 89.14 110.41 89.23 109.94 89.41 109.55 89.64 109.01 89.82 108.46 90 107.37 90.18 106.11 90.45 104.86 90.45 104.86"/><polygon class="cls-4" points="71.73 94.19 71.73 95.13 71.91 96.07 72.04 96.54 72.14 97.01 72.18 97.52 72.18 97.99 72.5 99.31 72.77 99.71 72.95 100.13 73.45 100.6 73.58 101.23 73.08 102.17 72.77 102.87 72.9 103.77 73.04 104.43 72.18 103.77 71.77 102.48 71.82 101.66 71.91 100.84 71.68 100.06 71.32 99.16 70.87 98.65 70.37 97.55 69.92 95.95 69.56 94.35 69.29 92.75 69.15 91.11 69.01 89.58 68.74 88.02 68.38 86.49 67.93 85.01 67.3 83.68 66.8 82.27 66.66 81.69 66.66 81.06 66.8 80.47 67.07 79.93 67.21 79.58 67.21 79.19 67.07 78.75 66.84 78.33 66.48 77.74 66.17 77.15 66.08 76.88 66.03 76.61 66.03 76.33 66.12 76.06 66.44 74.92 66.48 74.46 66.39 73.99 66.17 73.63 65.85 73.32 64.9 72.54 64.63 72.19 64.49 71.8 64.63 70.94 64.85 70.04 65.26 69.22 65.76 68.48 66.17 67.89 66.53 67.26 66.8 66.64 67.07 65.94 67.21 65.27 67.3 64.53 67.34 63.83 67.25 63.12 66.98 61.56 66.8 59.06 66.71 58.47 66.53 57.88 66.26 57.34 65.85 56.87 65.67 56.59 65.53 56.24 65.58 55.85 65.67 55.46 66.08 54.25 66.17 53.98 66.21 53.66 66.21 53.35 66.17 53.04 66.03 52.53 65.98 52.02 65.98 50.97 66.03 49.99 65.89 48.97 65.04 45.89 64.08 42.84 63.86 41.9 63.5 41.04 62.82 39.94 62.1 38.89 61.87 38.5 61.69 38.07 61.55 37.64 61.46 37.21 61.55 36.04 62.82 30.29 63.18 29.27 63.59 28.3 63.77 27.67 63.81 27.01 63.54 25.72 63.54 24.94 63.63 24.58 63.81 24.19 63.86 23.76 63.9 23.29 63.72 22.43 63.45 21.61 63.23 20.83 63.14 20.56 63 20.29 62.64 19.89 61.55 19.23 61.24 19 60.96 18.68 60.87 18.49 60.83 18.25 60.83 18.06 60.87 17.82 61.19 16.92 61.28 16.49 61.24 16.02 60.87 15.16 60.6 14.66 60.2 14.19 59.74 13.84 59.2 13.56 57.62 13.17 56.26 12.98 54.9 12.66 53.55 12.31 52.24 11.88 51.96 11.8 51.65 11.76 50.97 11.8 50.34 11.92 49.75 12 49.21 11.96 49.07 11.76 49.03 11.49 49.3 11.02 49.7 10.59 49.97 10.4 50.25 10.28 50.52 10.2 50.83 10.2 51.38 10.24 51.92 10.2 53.19 9.81 53.82 9.54 54.41 9.22 55.13 8.87 55.85 8.64 56.62 8.44 57.39 8.33 60.65 8.21 61.42 8.09 62.19 7.86 62.91 7.5 63.54 7.04 63.9 7 64.27 6.92 64.72 6.57 65.12 6.18 65.58 5.79 66.08 5.47 66.35 5.47 66.57 5.59 67.12 6.21 67.79 6.72 68.56 7.15 69.33 7.43 73.94 7.5 74.22 7.7 74.44 7.93 74.71 8.48 75.12 9.73 75.39 10.63 75.48 10.75 75.48 10.91 75.44 11.02 75.35 11.14 75.21 11.37 75.26 11.61 75.89 12.51 75.98 12.78 76.07 13.09 75.75 13.33 75.53 13.64 75.39 13.95 75.3 14.34 75.3 14.97 75.39 15.59 75.44 16.06 75.44 16.57 75.39 16.88 75.21 17.16 74.8 17.51 74.35 17.78 73.49 18.25 72.68 18.84 72.36 19.11 72.09 19.42 71.82 20.21 71.73 21.42 71.68 22.59 71.68 23.8 71.77 24.98 72 25.72 72.9 25.99 73.36 26.3 73.22 27.12 73 27.91 72.63 28.65 72.23 29.39 71.68 30.29 71.23 31.23 71.1 31.89 71 32.56 71.05 33.22 71.19 33.93 71.46 35.25 71.64 36.62 71.64 37.13 71.59 37.64 71.55 38.22 71.59 38.77 71.73 39.36 71.95 39.87 72.5 40.96 72.95 42.06 73.13 42.64 73.22 43.19 73.31 43.62 73.45 44.05 73.63 44.44 73.9 44.83 74.98 46.35 75.26 46.82 75.44 47.37 75.48 47.61 75.48 47.88 75.39 48.15 75.3 48.39 74.8 49.25 74.31 50.15 73.9 51.04 73.49 51.98 73.36 52.41 73.22 52.88 73.18 53.35 73.18 53.82 73.36 54.76 73.49 55.23 73.72 55.62 73.85 56.01 73.81 56.36 73.67 56.91 73.4 57.38 73.04 58.16 72.95 58.51 73 58.9 73.13 59.13 73.36 59.37 73.67 59.6 73.99 59.92 74.22 60.23 74.4 60.58 74.53 60.97 74.58 61.36 74.58 61.79 74.53 62.18 74.17 63.63 73.72 65.04 72.5 69.73 71.86 71.6 71.73 72.23 71.64 72.89 71.64 74.22 71.68 74.89 71.82 75.55 72 76.21 72.18 76.84 72.41 77.47 72.54 78.13 72.63 78.79 72.68 79.46 72.68 80.16 72.63 80.83 72.36 82.16 72.09 83.91 71.91 85.75 71.91 87.55 72 89.35 72.04 90.56 72 91.77 71.91 92.98 71.73 94.19 71.73 94.19"/><polygon class="cls-4" points="111.89 7.04 112.66 6.57 113.43 6.25 114.06 6.1 114.69 5.63 115.69 4.96 116.05 5.43 116.5 5.82 117.04 6.14 117.63 6.33 118.76 6.61 119.94 6.8 120.21 6.88 120.44 7 120.62 7.15 120.8 7.39 121.43 8.33 121.75 8.75 121.97 8.99 122.25 9.18 122.47 9.3 122.79 9.42 122.7 9.81 122.56 10.2 122.34 10.67 122.34 10.98 122.43 11.26 122.83 11.57 123.29 11.8 123.6 12 123.87 12.23 124.01 12.43 124.15 12.66 124.19 12.9 124.19 13.13 124.15 13.91 123.96 14.7 123.87 15.16 123.83 15.63 124.06 15.95 124.33 16.18 124.64 16.53 124.91 16.88 123.83 18.8 123.6 19.19 123.47 19.62 123.38 20.09 123.38 20.91 123.33 21.26 123.2 21.58 122.97 21.85 122.02 22.9 121.79 23.26 121.61 23.69 120.98 25.87 120.44 28.1 120.08 29 119.31 30.33 119.08 30.84 118.9 31.35 118.76 31.89 118.76 32.28 118.81 32.67 118.9 33.81 118.95 34.9 118.85 36 118.72 37.09 118.67 37.99 118.9 38.3 119.22 38.58 119.85 39.08 120.03 39.28 120.12 39.51 119.85 41.55 119.58 42.56 119.31 43.54 119.04 44.44 118.85 45.34 118.85 46 118.9 46.67 119.13 47.29 119.44 47.88 120.89 50.11 121.25 50.81 121.52 51.55 121.7 52.33 121.84 53.08 121.88 53.86 121.88 54.68 121.75 55.46 121.61 56.2 121.48 57.1 121.21 58 120.98 58.59 120.66 59.21 120.35 59.8 119.62 60.89 119.22 61.36 119.08 61.99 119.04 62.65 119.08 63.28 119.26 63.9 120.3 66.48 120.44 67.03 120.53 67.58 120.48 68.12 120.39 68.63 119.94 69.53 119.4 70.39 118.95 71.09 118.63 71.84 118.54 72.15 118.54 72.46 118.58 72.78 118.67 73.09 119.49 75.16 119.62 75.63 119.71 76.14 119.71 76.64 119.62 77.15 119.35 77.82 119.17 78.48 118.99 79.19 118.85 79.89 118.81 80.59 118.81 82 118.9 82.7 119.67 85.24 119.49 85.87 119.22 86.49 118.9 87.04 118.49 87.59 118.08 88.96 117.27 90.25 116.5 91.58 115.87 92.98 115.33 94.39 115.28 94.98 115.33 95.6 115.51 96.15 115.82 96.7 115.42 97.2 115.15 97.79 114.74 98.14 114.33 98.57 114.29 97.4 114.15 96.23 113.97 95.05 113.74 93.88 113.65 93.57 113.61 93.22 113.65 92.86 113.65 92.51 113.74 91.81 113.74 91.11 114.11 89.07 114.2 88.72 114.24 88.33 114.2 87.82 114.11 87.28 113.97 86.77 113.79 86.26 113.34 85.32 112.93 84.34 112.84 83.88 112.79 83.41 112.84 82.9 113.02 82.47 113.74 81.14 114.42 79.77 114.56 79.42 114.65 79.03 114.69 78.68 114.74 78.29 114.65 77.5 114.11 76.1 113.97 75.39 113.97 74.77 114.06 74.14 114.24 73.56 114.51 73.01 114.96 72.03 115.33 71.06 115.46 70.2 115.51 69.34 115.51 68.48 115.42 67.66 115.33 66.79 115.33 65.11 115.42 64.25 115.69 62.77 115.82 61.25 115.87 59.72 115.73 58.24 115.55 57.1 115.28 56.05 114.92 54.99 114.47 53.94 114.29 53.51 114.15 53.04 114.06 52.57 114.02 52.06 113.97 51.59 114.02 51.08 114.06 50.61 114.2 50.15 114.87 48 114.96 47.53 114.96 47.1 114.87 46.63 114.74 46.2 113.97 44.75 113.16 43.31 112.7 42.52 112.39 41.7 112.16 40.84 112.03 39.94 112.07 39.28 112.16 38.58 112.25 37.91 112.43 37.21 112.61 36.54 112.7 35.8 112.7 35.1 112.66 34.39 112.57 34.16 112.43 33.93 111.84 33.26 111.62 33.03 111.44 32.75 111.39 32.48 111.48 32.25 111.98 31.62 113.47 29.98 113.7 29.59 113.88 29.2 113.88 28.96 113.83 28.73 113.74 28.53 113.38 28.14 113.2 27.67 113.2 26.97 113.29 26.54 113.43 26.11 113.61 25.72 113.74 25.29 113.74 24.9 113.43 23.76 113.38 23.37 113.38 22.98 113.56 22.08 113.65 21.18 113.7 20.25 113.7 19.35 113.61 18.64 113.43 17.94 113.11 17.28 112.66 16.73 112.03 16.26 111.35 15.95 110.58 15.71 109.81 15.67 107.14 15.63 106.46 15.59 105.78 15.4 105.2 15.13 104.65 14.74 104.43 14.58 104.2 14.5 103.52 14.34 101.62 14.34 101.4 14.23 101.17 14.07 101.31 13.52 101.49 13.13 101.76 12.78 102.08 12.47 102.39 12.19 102.75 11.96 103.16 11.76 103.61 11.61 104.02 11.53 105.38 11.26 106.69 10.91 107.95 10.44 109.22 9.93 109.67 9.69 110.12 9.42 110.89 8.75 111.21 8.36 111.48 7.93 111.71 7.5 111.89 7.04 111.89 7.04"/><polygon class="cls-2" points="48.66 146.21 51.42 146.21 57.21 150.12 57.16 146.21 63.77 146.21 63.77 159.46 58.93 159.46 53.19 155.56 53.19 159.5 46.63 159.46 46.58 146.21 48.66 146.21 48.66 146.21"/><polygon class="cls-1" points="27.18 136.99 27.86 137.89 27.9 138.2 27.9 138.48 27.86 138.79 27.77 139.06 26.86 139.53 26 140.08 25.15 140.66 24.42 141.33 24.2 141.41 23.97 141.41 23.74 141.37 23.56 141.25 23.56 119.56 21.26 122.18 19.08 124.88 17 127.69 15.06 130.58 15.29 130.97 15.56 131.28 15.87 131.6 16.24 131.91 16.1 132.26 15.87 132.54 15.38 132.54 14.88 132.61 14.43 132.85 14.02 133.12 13.43 133.47 4.79 121.75 4.79 136.72 4.61 136.91 4.34 136.99 4.02 136.87 3.8 136.72 3.53 136.09 3.16 135.51 2.71 134.96 2.22 134.45 2.08 134.1 2.08 133.9 2.12 133.75 2.31 133.28 2.53 132.81 2.71 132.5 2.85 132.14 2.94 131.79 2.98 131.44 3.08 128.78 3.12 126.13 3.12 123.51 3.03 120.85 2.12 119.21 2.94 118.89 3.66 118.46 4.43 118 5.11 117.45 6.24 118.7 7.33 119.95 8.32 121.28 9.27 122.65 14.29 129.49 15.24 128 16.19 126.55 17.23 125.11 18.32 123.7 19.4 122.37 20.58 121.04 23.02 118.54 23.2 117.96 23.34 117.33 24.11 117.37 24.87 117.53 25.64 118.23 26.46 118.82 27.36 119.32 28.31 119.72 28.4 120.07 28.4 120.42 27.04 120.89 27.18 136.99 27.18 136.99"/><polygon class="cls-2" points="46.63 119.75 48.12 119.75 49.61 119.91 51.01 120.26 52.42 120.73 52.69 121.67 52.87 122.65 52.96 123.12 53 123.58 53 124.09 52.96 124.56 52.82 126.48 52.78 128.39 52.73 128.98 52.64 129.56 52.46 130.15 52.19 130.7 51.87 131.21 51.51 131.68 51.06 132.11 50.61 132.5 49.34 133.36 48.71 133.71 47.98 134.02 47.22 134.29 46.4 134.37 46.45 127.06 46.63 119.75 46.63 119.75"/><polygon class="cls-2" points="44.28 119.56 44.19 133.83 43.1 132.93 42.11 131.95 41.2 130.89 40.39 129.76 39.66 128.59 39.03 127.34 38.53 126.01 38.17 124.68 37.94 123.86 37.81 123 37.81 122.14 37.9 121.28 38.12 120.89 38.49 120.58 38.85 120.38 39.3 120.26 39.62 120.5 40.02 120.69 40.39 120.77 40.79 120.81 41.47 120.26 42.11 119.56 44.28 119.56 44.28 119.56"/><polygon class="cls-1" points="48.66 148.29 50.79 148.29 59.34 154.11 59.25 148.29 61.69 148.29 61.69 157.39 59.56 157.39 51.11 151.61 51.11 157.39 48.66 157.39 48.66 148.29 48.66 148.29"/></svg>